<svg width="21" height="8" viewBox="0 0 21 8" fill="none" xmlns="http://www.w3.org/2000/svg">
<path d="M3.64773 7.12784C5.29261 7.12784 6.34091 6.15199 6.4517 4.76278H4.97727C4.84517 5.46591 4.33807 5.87074 3.66051 5.87074C2.69744 5.87074 2.07528 5.06534 2.07528 3.72727C2.07528 2.40625 2.71023 1.61364 3.66051 1.61364C4.40199 1.61364 4.85795 2.09091 4.97727 2.72159H6.4517C6.34517 1.30256 5.23722 0.369318 3.6392 0.369318C1.72159 0.369318 0.511364 1.75426 0.511364 3.75284C0.511364 5.73438 1.69176 7.12784 3.64773 7.12784ZM13.2517 2.18466C13.0386 1.0767 12.1523 0.369318 10.6182 0.369318C9.04146 0.369318 7.9676 1.14489 7.97186 2.35511C7.9676 3.30966 8.55567 3.94034 9.81277 4.20028L10.9292 4.43466C11.5301 4.56676 11.8113 4.80966 11.8113 5.1804C11.8113 5.62784 11.3256 5.96449 10.5926 5.96449C9.88521 5.96449 9.42499 5.65767 9.29288 5.0696L7.78862 5.21449C7.98038 6.41619 8.99033 7.12784 10.5969 7.12784C12.2332 7.12784 13.3881 6.27983 13.3923 5.03977C13.3881 4.10653 12.7872 3.53551 11.5514 3.26705L10.4349 3.02841C9.77016 2.87926 9.50595 2.64915 9.51021 2.26989C9.50595 1.8267 9.99601 1.51989 10.6395 1.51989C11.3511 1.51989 11.7261 1.90767 11.8454 2.33807L13.2517 2.18466ZM20.1976 2.18466C19.9846 1.0767 19.0982 0.369318 17.5641 0.369318C15.9874 0.369318 14.9135 1.14489 14.9178 2.35511C14.9135 3.30966 15.5016 3.94034 16.7587 4.20028L17.8752 4.43466C18.476 4.56676 18.7573 4.80966 18.7573 5.1804C18.7573 5.62784 18.2715 5.96449 17.5385 5.96449C16.8312 5.96449 16.3709 5.65767 16.2388 5.0696L14.7346 5.21449C14.9263 6.41619 15.9363 7.12784 17.5428 7.12784C19.1792 7.12784 20.334 6.27983 20.3383 5.03977C20.334 4.10653 19.7331 3.53551 18.4973 3.26705L17.3809 3.02841C16.7161 2.87926 16.4519 2.64915 16.4562 2.26989C16.4519 1.8267 16.9419 1.51989 17.5854 1.51989C18.2971 1.51989 18.6721 1.90767 18.7914 2.33807L20.1976 2.18466Z" fill="#3A4A42"/>
</svg>
