<svg width="103" height="32" viewBox="0 0 103 32" fill="none" xmlns="http://www.w3.org/2000/svg">
<rect width="103" height="32" rx="4" fill="#EBF0EE"/>
<path d="M12.8608 20H14.4418V16.804H16.0526L17.7656 20H19.5298L17.642 16.5398C18.669 16.1264 19.2102 15.2486 19.2102 14.0639C19.2102 12.3977 18.1364 11.2727 16.1335 11.2727H12.8608V20ZM14.4418 15.4915V12.5938H15.8906C17.071 12.5938 17.5994 13.1349 17.5994 14.0639C17.5994 14.9929 17.071 15.4915 15.8991 15.4915H14.4418ZM25.1292 17.2472C25.1292 18.2443 24.4175 18.7386 23.7357 18.7386C22.9942 18.7386 22.4999 18.2145 22.4999 17.3835V13.4545H20.9573V17.6222C20.9573 19.1946 21.8522 20.0852 23.1391 20.0852C24.1192 20.0852 24.8096 19.5696 25.1079 18.8366H25.1761V20H26.6718V13.4545H25.1292V17.2472ZM28.6863 20H30.2033V18.9688H30.2928C30.5357 19.446 31.0428 20.1151 32.1678 20.1151C33.7104 20.1151 34.8652 18.892 34.8652 16.7358C34.8652 14.554 33.6763 13.3693 32.1635 13.3693C31.0087 13.3693 30.5272 14.0639 30.2928 14.5369H30.2289V11.2727H28.6863V20ZM30.199 16.7273C30.199 15.4574 30.7445 14.6349 31.7374 14.6349C32.7644 14.6349 33.2928 15.5085 33.2928 16.7273C33.2928 17.9545 32.7559 18.8494 31.7374 18.8494C30.753 18.8494 30.199 17.9972 30.199 16.7273ZM37.2728 22.4418C38.4745 22.4418 39.1691 21.8196 39.5399 20.7926L42.1691 13.4631L40.52 13.4545L39.0072 18.3977H38.939L37.4305 13.4545H35.7941L38.1677 20.1364L38.0356 20.4901C37.7416 21.2145 37.2984 21.2699 36.6251 21.0781L36.2671 22.2756C36.476 22.3651 36.851 22.4418 37.2728 22.4418ZM49.7915 20.1278C51.7091 20.1278 52.9278 18.777 52.9278 16.7528C52.9278 14.7244 51.7091 13.3693 49.7915 13.3693C47.8739 13.3693 46.6551 14.7244 46.6551 16.7528C46.6551 18.777 47.8739 20.1278 49.7915 20.1278ZM49.8 18.892C48.7389 18.892 48.219 17.946 48.219 16.7486C48.219 15.5511 48.7389 14.5923 49.8 14.5923C50.844 14.5923 51.3639 15.5511 51.3639 16.7486C51.3639 17.946 50.844 18.892 49.8 18.892ZM56.1398 16.1648C56.1398 15.2188 56.7108 14.6733 57.5247 14.6733C58.3216 14.6733 58.7988 15.1974 58.7988 16.071V20H60.3415V15.8324C60.3457 14.2642 59.4508 13.3693 58.1 13.3693C57.1199 13.3693 56.4466 13.8381 56.1483 14.5668H56.0716V13.4545H54.5971V20H56.1398V16.1648ZM65.6062 20H67.1488V16.152C67.1488 15.321 67.7752 14.733 68.6233 14.733C68.8832 14.733 69.2071 14.7798 69.3392 14.8224V13.4034C69.1985 13.3778 68.9556 13.3608 68.7852 13.3608C68.0352 13.3608 67.4088 13.7869 67.1701 14.5455H67.1019V13.4545H65.6062V20ZM72.4786 20.1321C73.5056 20.1321 74.1193 19.6506 74.4005 19.1009H74.4516V20H75.9346V15.6193C75.9346 13.8892 74.5241 13.3693 73.2755 13.3693C71.8991 13.3693 70.8423 13.983 70.5014 15.1761L71.9417 15.3807C72.0951 14.9332 72.5298 14.5497 73.284 14.5497C73.9999 14.5497 74.392 14.9162 74.392 15.5597V15.5852C74.392 16.0284 73.9275 16.0497 72.7727 16.1733C71.5028 16.3097 70.2883 16.6889 70.2883 18.1634C70.2883 19.4503 71.2301 20.1321 72.4786 20.1321ZM72.8792 18.9986C72.2357 18.9986 71.7755 18.7045 71.7755 18.1378C71.7755 17.5455 72.2911 17.2983 72.9815 17.2003C73.3863 17.1449 74.196 17.0426 74.3963 16.8807V17.652C74.3963 18.3807 73.8082 18.9986 72.8792 18.9986ZM77.8457 20H79.3884V13.4545H77.8457V20ZM78.6213 12.5256C79.1114 12.5256 79.5119 12.1506 79.5119 11.6903C79.5119 11.2259 79.1114 10.8509 78.6213 10.8509C78.127 10.8509 77.7264 11.2259 77.7264 11.6903C77.7264 12.1506 78.127 12.5256 78.6213 12.5256ZM82.8773 11.2727H81.3346V20H82.8773V11.2727ZM89.9968 15.1847C89.7838 14.0767 88.8974 13.3693 87.3633 13.3693C85.7866 13.3693 84.7128 14.1449 84.717 15.3551C84.7128 16.3097 85.3008 16.9403 86.5579 17.2003L87.6744 17.4347C88.2753 17.5668 88.5565 17.8097 88.5565 18.1804C88.5565 18.6278 88.0707 18.9645 87.3378 18.9645C86.6304 18.9645 86.1701 18.6577 86.038 18.0696L84.5338 18.2145C84.7255 19.4162 85.7355 20.1278 87.342 20.1278C88.9784 20.1278 90.1332 19.2798 90.1375 18.0398C90.1332 17.1065 89.5324 16.5355 88.2966 16.267L87.1801 16.0284C86.5153 15.8793 86.2511 15.6491 86.2554 15.2699C86.2511 14.8267 86.7412 14.5199 87.3846 14.5199C88.0963 14.5199 88.4713 14.9077 88.5906 15.3381L89.9968 15.1847Z" fill="#3A4A42"/>
</svg>
